<svg width="40" height="40" viewBox="0 0 40 40" fill="none" xmlns="http://www.w3.org/2000/svg">
<g clip-path="url(#clip0_513_1906)">
<path d="M28.3867 10.9678H29.677V12.2581H28.3867V10.9678Z" fill="#222222"/>
<path d="M2.58105 26.4512H3.87138V27.7415H2.58105V26.4512Z" fill="#222222"/>
<path d="M36.7742 10.9678H32.1929C31.893 9.4976 30.5903 8.38716 29.0323 8.38716C27.4742 8.38716 26.1716 9.4976 25.8717 10.9678H23.6498C22.7882 10.9678 21.978 11.3039 21.3691 11.9129L19.6547 13.6266C19.294 13.9873 18.7954 14.1936 18.2857 14.1936H17.4194V10.9678H18.0645C18.7761 10.9678 19.3548 10.3891 19.3548 9.67748V3.22587C19.3548 2.51424 18.7761 1.93555 18.0645 1.93555H3.87097C3.15934 1.93555 2.58065 2.51424 2.58065 3.22587V9.67748C2.58065 10.3891 3.15934 10.9678 3.87097 10.9678H4.51613V14.467C3.37859 14.9667 2.58065 16.1001 2.58065 17.4194V23.9362C1.11045 24.2361 0 25.5394 0 27.0968C0 28.6543 1.11045 29.9575 2.58065 30.2574V33.5484C2.58065 35.327 4.02785 36.7743 5.80645 36.7743H11.6129C11.6129 37.4859 12.1916 38.0646 12.9032 38.0646H20.6452C21.3568 38.0646 21.9355 37.4859 21.9355 36.7743H25.1613C26.9399 36.7743 28.3871 35.327 28.3871 33.5484V30.9678C28.3871 29.9008 29.2556 29.0323 30.3226 29.0323H33.5484V27.742H30.3226C28.544 27.742 27.0968 29.1892 27.0968 30.9678V33.5484C27.0968 34.6154 26.2283 35.4839 25.1613 35.4839H21.9355C21.9355 34.7723 21.3568 34.1936 20.6452 34.1936H20.4864L18.2167 26.2504C18.0343 25.6084 17.4408 25.1614 16.7742 25.1614C16.1076 25.1614 15.5141 25.6084 15.3317 26.2504L13.062 34.1936H12.9032C12.1916 34.1936 11.6129 34.7723 11.6129 35.4839H5.80645C4.73948 35.4839 3.87097 34.6154 3.87097 33.5484V30.2574C5.34117 29.9575 6.45161 28.6549 6.45161 27.0968C6.45161 25.5387 5.34117 24.2361 3.87097 23.9362V17.4194C3.87097 16.3524 4.73948 15.4839 5.80645 15.4839H8.3871V14.1936H5.80645V10.9678H16.129V14.1936H9.67742V15.4839H18.2857C19.1472 15.4839 19.9575 15.1478 20.5664 14.5389L22.2807 12.8252C22.6414 12.4645 23.1401 12.2581 23.6498 12.2581H25.8717C26.1716 13.7283 27.4742 14.8388 29.0323 14.8388C30.5903 14.8388 31.893 13.7283 32.1929 12.2581H36.7742C37.8412 12.2581 38.7097 13.1266 38.7097 14.1936V25.8065C38.7097 26.8735 37.8412 27.742 36.7742 27.742H34.8387V29.0323H36.7742C38.5528 29.0323 40 27.5851 40 25.8065V14.1936C40 12.415 38.5528 10.9678 36.7742 10.9678ZM16.5723 26.6038C16.6239 26.4252 16.9251 26.4252 16.9768 26.6038L19.1444 34.1936H14.4034L16.5723 26.6038ZM12.9032 35.4839H20.6452L20.6458 36.7743H12.9032V35.4839ZM5.16129 27.0968C5.16129 28.1638 4.29278 29.0323 3.22581 29.0323C2.15883 29.0323 1.29032 28.1638 1.29032 27.0968C1.29032 26.0299 2.15883 25.1614 3.22581 25.1614C4.29278 25.1614 5.16129 26.0299 5.16129 27.0968ZM15.4839 9.67748V7.09684H18.0651L18.0658 9.67748H15.4839ZM10.3226 5.80651H7.74194V3.22587H10.3226V5.80651ZM11.6129 3.22587H14.1935V5.80651H11.6129V3.22587ZM10.3226 7.09684V9.67748H7.74194V7.09684H10.3226ZM11.6129 7.09684H14.1935V9.67748H11.6129V7.09684ZM18.0651 5.80651H15.4839V3.22587H18.0645L18.0651 5.80651ZM6.45161 3.22587V5.80651H3.87097V3.22587H6.45161ZM3.87097 7.09684H6.45161V9.67748H3.87097V7.09684ZM29.0323 13.5484C27.9653 13.5484 27.0968 12.6799 27.0968 11.613C27.0968 10.546 27.9653 9.67748 29.0323 9.67748C30.0992 9.67748 30.9677 10.546 30.9677 11.613C30.9677 12.6799 30.0992 13.5484 29.0323 13.5484Z" fill="#222222"/>
</g>
<defs>
<clipPath id="clip0_513_1906">
<rect width="40" height="40" fill="white"/>
</clipPath>
</defs>
</svg>
