<svg width="40" height="40" viewBox="0 0 40 40" fill="none" xmlns="http://www.w3.org/2000/svg">
<g clip-path="url(#clip0_494_274)">
<path d="M11.6201 22.8415C12.7442 22.8415 13.8308 22.7688 14.859 22.6337V11.3639C13.8309 11.2289 12.7442 11.1562 11.6201 11.1562C5.20171 11.1562 -0.00146484 13.5161 -0.00146484 16.4272V17.5704C-0.00146484 20.4814 5.20171 22.8415 11.6201 22.8415Z" fill="#ffffff"/>
<path d="M11.6201 28.7261C12.7442 28.7261 13.8308 28.6535 14.859 28.5186V25.2152C13.8306 25.3502 12.7445 25.4239 11.6201 25.4239C6.01754 25.4239 1.34136 23.6256 0.242957 21.2324C0.0829971 21.581 -0.00146484 21.942 -0.00146484 22.312V23.4551C-0.00146484 26.3663 5.20171 28.7261 11.6201 28.7261Z" fill="#ffffff"/>
<path d="M14.8599 31.3567V31.0999C13.8315 31.235 12.7455 31.3086 11.6211 31.3086C6.01852 31.3086 1.34234 29.5104 0.243933 27.1172C0.0839737 27.4657 -0.000488281 27.8266 -0.000488281 28.1967V29.3398C-0.000488281 32.251 5.20269 34.6109 11.6211 34.6109C12.9047 34.6109 14.1392 34.5163 15.2937 34.342C15.0075 33.7566 14.8599 33.1393 14.8599 32.4997V31.3567Z" fill="#ffffff"/>
<path d="M28.3784 2.22852C21.96 2.22852 16.7568 4.58837 16.7568 7.49952V8.64264C16.7568 11.5538 21.96 13.9136 28.3784 13.9136C34.7967 13.9136 40 11.5538 40 8.64264V7.49952C40 4.58837 34.7967 2.22852 28.3784 2.22852Z" fill="#ffffff"/>
<path d="M28.3784 16.4961C22.7758 16.4961 18.0997 14.698 17.0013 12.3047C16.8413 12.6532 16.7568 13.0141 16.7568 13.3843V14.5274C16.7568 17.4385 21.96 19.7984 28.3784 19.7984C34.7967 19.7984 40 17.4385 40 14.5274V13.3843C40 13.0141 39.9156 12.6532 39.7556 12.3047C38.6572 14.698 33.981 16.4961 28.3784 16.4961Z" fill="#ffffff"/>
<path d="M28.3784 22.3809C22.7758 22.3809 18.0997 20.5827 17.0013 18.1895C16.8413 18.538 16.7568 18.8989 16.7568 19.269V20.4122C16.7568 23.3234 21.96 25.6833 28.3784 25.6833C34.7967 25.6833 40 23.3234 40 20.4122V19.269C40 18.8989 39.9156 18.538 39.7556 18.1895C38.6572 20.5828 33.981 22.3809 28.3784 22.3809Z" fill="#ffffff"/>
<path d="M28.3784 28.583C22.7758 28.583 18.0997 26.7848 17.0013 24.3916C16.8413 24.7402 16.7568 25.1011 16.7568 25.4711V26.6143C16.7568 29.5254 21.96 31.8853 28.3784 31.8853C34.7967 31.8853 40 29.5254 40 26.6143V25.4711C40 25.1011 39.9156 24.74 39.7556 24.3916C38.6572 26.7847 33.981 28.583 28.3784 28.583Z" fill="#ffffff"/>
<path d="M28.3784 34.4678C22.7758 34.4678 18.0997 32.6697 17.0013 30.2765C16.8413 30.6251 16.7568 30.9861 16.7568 31.3559V32.4991C16.7568 35.4102 21.96 37.7701 28.3784 37.7701C34.7967 37.7701 40 35.4102 40 32.4991V31.3558C40 30.9858 39.9156 30.6248 39.7556 30.2764C38.6572 32.6696 33.981 34.4678 28.3784 34.4678Z" fill="#ffffff"/>
</g>
<defs>
<clipPath id="clip0_494_274">
<rect width="40" height="39.9999" fill="white" transform="translate(-0.000488281)"/>
</clipPath>
</defs>
</svg>
