<svg width="40" height="40" viewBox="0 0 40 40" fill="none" xmlns="http://www.w3.org/2000/svg">
<g clip-path="url(#clip0_503_1368)">
<path d="M24.0225 9.34369C22.1943 11.1719 22.1943 14.1484 24.0225 15.9766C25.8507 17.8048 28.8272 17.8048 30.6554 15.9766C32.4834 14.1484 32.4834 11.1719 30.6554 9.34369C28.8272 7.51565 25.8507 7.51565 24.0225 9.34369ZM28.171 13.4922C27.7023 13.9609 26.9757 13.9609 26.5069 13.4922C26.0616 13.0469 26.0616 12.2969 26.5069 11.8281C26.9756 11.3828 27.7022 11.3828 28.171 11.8281C28.6163 12.2969 28.6163 13.0469 28.171 13.4922Z" fill="#222222"/>
<path d="M2.00918 25.6786C1.3845 25.5118 0.741917 25.8824 0.575276 26.5089C-0.395036 30.1382 0.65137 34.041 3.30637 36.6961C5.96137 39.3512 9.86426 40.3974 13.4936 39.4272C14.1199 39.2604 14.4906 38.618 14.3239 37.9933C14.1548 37.3629 13.5138 36.9939 12.89 37.1631C10.0658 37.9172 7.02871 37.104 4.96364 35.0389C2.89856 32.9737 2.08528 29.9367 2.8395 27.1126C3.007 26.487 2.63543 25.8437 2.00918 25.6786Z" fill="#222222"/>
<path d="M1.60248 23.2611L12.222 19.0948L15.7362 22.609L14.9076 23.4375C14.4496 23.8955 14.4496 24.6367 14.9076 25.0947C15.3655 25.5528 16.1069 25.5528 16.5649 25.0947L17.3934 24.2662L20.9037 27.7765L16.738 38.3984C16.4415 39.1558 16.9841 39.967 17.7883 39.9975C19.7221 40.062 21.5658 38.9246 22.3126 37.022L24.5199 31.3928L28.1657 35.0386C28.6234 35.4962 29.3653 35.4962 29.8231 35.0386C30.2808 34.5808 30.2808 33.839 29.8231 33.3812L25.4536 29.0116L29.2205 19.4051C27.6069 19.8527 25.8805 19.7207 24.3463 18.9986L21.8375 25.3955L19.0507 22.6087L19.8792 21.7802C20.3372 21.3222 20.3372 20.5808 19.8792 20.1228C19.4212 19.6649 18.68 19.6649 18.2219 20.1228L17.3933 20.9515L14.6025 18.1605L21.0008 15.6503C20.2801 14.1156 20.1498 12.3896 20.5987 10.7762L10.9871 14.5454L6.62092 10.1792C6.16326 9.72152 5.42131 9.72152 4.96365 10.1792C4.506 10.6368 4.506 11.3788 4.96365 11.8364L8.60615 15.479L2.97732 17.6865C1.13311 18.409 -0.0629097 20.2266 0.0025591 22.2083C0.030606 23.0086 0.838575 23.5576 1.60248 23.2611Z" fill="#222222"/>
<path d="M32.3099 7.69334C32.8938 8.27725 33.3265 8.94936 33.6617 9.656L39.3142 4.00107C40.2296 3.08584 40.2296 1.60193 39.3142 0.686543C38.3988 -0.228848 36.915 -0.228848 35.9997 0.686543L30.3472 6.34146C31.0537 6.67662 31.7258 7.10936 32.3099 7.69334Z" fill="#222222"/>
</g>
<defs>
<clipPath id="clip0_503_1368">
<rect width="40" height="40" fill="white"/>
</clipPath>
</defs>
</svg>
