<svg width="40" height="40" viewBox="0 0 40 40" fill="none" xmlns="http://www.w3.org/2000/svg">
<g clip-path="url(#clip0_494_273)">
<path d="M19.9996 12.4543C22.8491 12.4543 25.1672 10.1361 25.1672 7.28672C25.1672 4.43734 22.849 2.11914 19.9996 2.11914C17.1502 2.11914 14.832 4.43734 14.832 7.28672C14.832 10.1361 17.1502 12.4543 19.9996 12.4543Z" fill="#222222"/>
<path d="M11.6664 24.9007H28.3336C29.0225 24.9007 29.581 24.3422 29.581 23.6533C29.581 18.3702 25.283 14.0723 20 14.0723C14.7171 14.0723 10.4189 18.3702 10.4189 23.6533C10.4189 24.3422 10.9775 24.9007 11.6664 24.9007Z" fill="#222222"/>
<path d="M25.0342 29.6894L22.3286 29.2962L21.1186 26.8446C20.6617 25.9187 19.3381 25.9193 18.8814 26.8446L17.6714 29.2962L14.9658 29.6894C13.9442 29.8378 13.5357 31.0969 14.2745 31.8171L16.2322 33.7254L15.77 36.4201C15.5955 37.4377 16.6667 38.2152 17.58 37.7351L19.9999 36.4629L22.4199 37.7351C23.3258 38.2113 24.4057 37.4453 24.2299 36.4201L23.7677 33.7254L25.7254 31.8171C26.4648 31.0963 26.0553 29.8378 25.0342 29.6894Z" fill="#222222"/>
<path d="M11.1367 29.6893L8.43105 29.2961L7.22105 26.8445C6.76418 25.9188 5.44051 25.9193 4.98387 26.8445L3.77394 29.2961L1.06832 29.6893C0.0466792 29.8378 -0.361758 31.0968 0.376992 31.817L2.33473 33.7254L1.87254 36.4201C1.69801 37.4376 2.76918 38.2151 3.68246 37.7351L6.10246 36.4628L8.52246 37.7351C9.42832 38.2113 10.5082 37.4452 10.3324 36.4201L9.87019 33.7254L11.828 31.817C12.5673 31.0963 12.1577 29.8377 11.1367 29.6893Z" fill="#222222"/>
<path d="M38.9321 29.689L36.2265 29.2958L35.0165 26.8442C34.6418 26.0847 33.8147 26.1488 33.8979 26.1488C33.4232 26.1488 32.9895 26.4184 32.7793 26.8442L31.5694 29.2958L28.8637 29.689C27.8421 29.8375 27.4337 31.0965 28.1724 31.8167L30.1303 33.725L29.6681 36.4197C29.4936 37.4373 30.5647 38.2148 31.478 37.7347L33.898 36.4625L36.318 37.7347C37.2239 38.211 38.3038 37.4449 38.1279 36.4197L37.6657 33.725L39.6236 31.8167C40.3626 31.0961 39.9532 29.8374 38.9321 29.689Z" fill="#222222"/>
</g>
<defs>
<clipPath id="clip0_494_273">
<rect width="40" height="40" fill="white" transform="translate(-0.000488281)"/>
</clipPath>
</defs>
</svg>
