<svg width="57" height="74" viewBox="0 0 57 74" fill="none" xmlns="http://www.w3.org/2000/svg">
<path fill-rule="evenodd" clip-rule="evenodd" d="M55.5294 45.9535C55.5294 60.3386 43.5464 72 28.7647 72C13.983 72 2 60.3386 2 45.9535C2 39.5173 6.67801 26.7859 13.7096 18.2791C20.4007 23.1628 22.0735 24.7907 22.0735 24.7907L32.1103 2C32.1103 2 55.5294 31.5684 55.5294 45.9535ZM28.7648 63.8605C34.1905 63.8605 39.9921 59.7479 38.5889 52.8935C37.1857 46.0392 28.7648 37.814 28.7648 37.814C28.7648 37.814 20.3443 46.0392 18.9406 52.8935C17.537 59.7479 23.339 63.8605 28.7648 63.8605Z" fill="white" stroke="white" stroke-width="2.5" stroke-linecap="round" stroke-linejoin="round"/>
</svg>
