<svg width="40" height="40" viewBox="0 0 40 40" fill="none" xmlns="http://www.w3.org/2000/svg">
<g clip-path="url(#clip0_507_91)">
<path d="M17.0331 21.5545C17.0331 20.3038 16.0193 19.29 14.7687 19.29H12.4153C11.1646 19.29 10.1509 20.3038 10.1509 21.5545V37.3281C10.1509 38.5788 11.1646 39.5925 12.4153 39.5925H14.7687C16.0193 39.5925 17.0331 38.5788 17.0331 37.3281V21.5545Z" fill="#222222"/>
<path d="M6.88219 27.0605C6.88219 25.7149 5.79137 24.624 4.44573 24.624H2.43647C1.09083 24.624 0 25.7149 0 27.0605V37.1563C0 38.502 1.09083 39.5928 2.43647 39.5928H4.44573C5.79137 39.5928 6.88219 38.502 6.88219 37.1563V27.0605Z" fill="#222222"/>
<path d="M27.0131 15.533C27.0131 14.2823 25.9993 13.2686 24.7486 13.2686H22.3953C21.1446 13.2686 20.1309 14.2823 20.1309 15.533V37.3285C20.1309 38.5792 21.1446 39.5929 22.3953 39.5929H24.7486C25.9993 39.5929 27.0131 38.5792 27.0131 37.3285V15.533Z" fill="#222222"/>
<path d="M39.6341 6.84065L35.2195 1.17763C34.8384 0.688653 34.2964 0.408203 33.7326 0.408203C33.1688 0.408203 32.6268 0.688653 32.2457 1.17763L27.8311 6.84047C27.4524 7.32618 27.3595 7.85938 27.5763 8.30311C27.8125 8.78693 28.3796 9.07564 29.0926 9.07564L30.2824 9.07891V37.3926C30.2824 38.6412 31.2996 39.5925 32.5482 39.5925H34.9173C36.1659 39.5925 37.1646 38.6412 37.1646 37.3926V9.05929L38.3617 9.07581C39.0763 9.07581 39.6483 8.78693 39.8846 8.30328C40.1014 7.85938 40.0127 7.32636 39.6341 6.84065Z" fill="#222222"/>
</g>
<defs>
<clipPath id="clip0_507_91">
<rect width="40" height="40" fill="white"/>
</clipPath>
</defs>
</svg>
