<svg width="20" height="20" viewBox="0 0 20 20" fill="none" xmlns="http://www.w3.org/2000/svg">
<path d="M19.8176 18.9331L13.7648 12.8211C14.8929 11.465 15.5725 9.72007 15.5725 7.81506C15.5725 3.49865 12.0868 0 7.78625 0C3.48575 0 0 3.49865 0 7.81506C0 12.1315 3.48575 15.6301 7.78625 15.6301C9.73967 15.6301 11.5249 14.9061 12.8922 13.7126L18.9362 19.8171C19.1791 20.061 19.574 20.061 19.8176 19.8171C20.0611 19.5733 20.0605 19.1782 19.8176 18.9331ZM7.78687 14.3903C4.16907 14.3903 1.23583 11.4463 1.23583 7.81506C1.23583 4.18387 4.16845 1.23978 7.78687 1.23978C11.4047 1.23978 14.3373 4.18325 14.3373 7.81506C14.3373 11.4469 11.4047 14.3903 7.78687 14.3903Z" fill="white"/>
</svg>
