<svg width="41" height="40" viewBox="0 0 41 40" fill="none" xmlns="http://www.w3.org/2000/svg">
<path d="M7.00049 4.93066C5.34649 4.93066 4.00049 6.25346 4.00049 7.87894C4.00049 9.50442 5.34649 10.8272 7.00049 10.8272C8.65449 10.8272 10.0005 9.50442 10.0005 7.87894C10.0005 6.25346 8.65449 4.93066 7.00049 4.93066ZM7.00049 9.51687C6.08182 9.51687 5.33382 8.78242 5.33382 7.87894C5.33382 6.97546 6.08182 6.24101 7.00049 6.24101C7.91916 6.24101 8.66716 6.97546 8.66716 7.87894C8.66716 8.78242 7.91916 9.51687 7.00049 9.51687Z" fill="#222222"/>
<path d="M33.3351 9.83183C33.7033 9.83183 34.0018 9.5385 34.0018 9.17666C34.0018 8.81481 33.7033 8.52148 33.3351 8.52148C32.9669 8.52148 32.6685 8.81481 32.6685 9.17666C32.6685 9.5385 32.9669 9.83183 33.3351 9.83183Z" fill="#222222"/>
<path d="M30.6672 9.83183C31.0353 9.83183 31.3338 9.5385 31.3338 9.17666C31.3338 8.81481 31.0353 8.52148 30.6672 8.52148C30.299 8.52148 30.0005 8.81481 30.0005 9.17666C30.0005 9.5385 30.299 9.83183 30.6672 9.83183Z" fill="#222222"/>
<path d="M34.6672 11.7977C35.0353 11.7977 35.3338 11.5043 35.3338 11.1425C35.3338 10.7806 35.0353 10.4873 34.6672 10.4873C34.299 10.4873 34.0005 10.7806 34.0005 11.1425C34.0005 11.5043 34.299 11.7977 34.6672 11.7977Z" fill="#222222"/>
<path d="M31.9992 11.7977C32.3674 11.7977 32.6658 11.5043 32.6658 11.1425C32.6658 10.7806 32.3674 10.4873 31.9992 10.4873C31.631 10.4873 31.3325 10.7806 31.3325 11.1425C31.3325 11.5043 31.631 11.7977 31.9992 11.7977Z" fill="#222222"/>
<path d="M27.9992 9.83183C28.3674 9.83183 28.6659 9.5385 28.6659 9.17666C28.6659 8.81481 28.3674 8.52148 27.9992 8.52148C27.631 8.52148 27.3325 8.81481 27.3325 9.17666C27.3325 9.5385 27.631 9.83183 27.9992 9.83183Z" fill="#222222"/>
<path d="M29.3351 11.7977C29.7033 11.7977 30.0018 11.5043 30.0018 11.1425C30.0018 10.7806 29.7033 10.4873 29.3351 10.4873C28.9669 10.4873 28.6685 10.7806 28.6685 11.1425C28.6685 11.5043 28.9669 11.7977 29.3351 11.7977Z" fill="#222222"/>
<path d="M25.3351 9.83183C25.7033 9.83183 26.0018 9.5385 26.0018 9.17666C26.0018 8.81481 25.7033 8.52148 25.3351 8.52148C24.9669 8.52148 24.6685 8.81481 24.6685 9.17666C24.6685 9.5385 24.9669 9.83183 25.3351 9.83183Z" fill="#222222"/>
<path d="M26.6672 11.7977C27.0353 11.7977 27.3338 11.5043 27.3338 11.1425C27.3338 10.7806 27.0353 10.4873 26.6672 10.4873C26.299 10.4873 26.0005 10.7806 26.0005 11.1425C26.0005 11.5043 26.299 11.7977 26.6672 11.7977Z" fill="#222222"/>
<path d="M22.6672 9.83183C23.0353 9.83183 23.3338 9.5385 23.3338 9.17666C23.3338 8.81481 23.0353 8.52148 22.6672 8.52148C22.299 8.52148 22.0005 8.81481 22.0005 9.17666C22.0005 9.5385 22.299 9.83183 22.6672 9.83183Z" fill="#222222"/>
<path d="M23.9992 11.7977C24.3674 11.7977 24.6659 11.5043 24.6659 11.1425C24.6659 10.7806 24.3674 10.4873 23.9992 10.4873C23.631 10.4873 23.3325 10.7806 23.3325 11.1425C23.3325 11.5043 23.631 11.7977 23.9992 11.7977Z" fill="#222222"/>
<path d="M40.0005 11.7396V4.01903C40.0005 2.35424 38.6225 1 36.9285 1H3.07249C1.37849 1 0.000488281 2.35424 0.000488281 4.01903V11.7389C0.000488281 12.7014 0.469155 13.5505 1.18516 14.1034C0.469155 14.6564 0.000488281 15.5055 0.000488281 16.4673V24.1872C0.000488281 25.8527 1.37849 27.2069 3.07249 27.2069H19.3338V32.5144C18.0298 32.7759 17.0005 33.7874 16.7345 35.069H0.667155C0.299155 35.069 0.000488281 35.3618 0.000488281 35.7241C0.000488281 36.0864 0.299155 36.3793 0.667155 36.3793H16.7345C17.0445 37.8724 18.3905 39 20.0005 39C21.6105 39 22.9565 37.8724 23.2665 36.3793H39.3338C39.7018 36.3793 40.0005 36.0864 40.0005 35.7241C40.0005 35.3618 39.7018 35.069 39.3338 35.069H23.2665C23.0005 33.7874 21.9712 32.7759 20.6672 32.5144V27.2069H36.9285C38.6225 27.2069 40.0005 25.8527 40.0005 24.1879V16.4673C40.0005 15.5049 39.5318 14.6564 38.8158 14.1034C39.5318 13.5505 40.0005 12.7014 40.0005 11.7396ZM22.0005 35.7241C22.0005 36.8078 21.1032 37.6897 20.0005 37.6897C18.8978 37.6897 18.0005 36.8078 18.0005 35.7241C18.0005 34.6405 18.8978 33.7586 20.0005 33.7586C21.1032 33.7586 22.0005 34.6405 22.0005 35.7241ZM38.6672 16.4673V24.1872C38.6672 25.13 37.8872 25.8966 36.9285 25.8966H3.07249C2.11382 25.8966 1.33382 25.13 1.33382 24.1879V16.4673C1.33382 15.5252 2.11382 14.7586 3.07249 14.7586H36.9278C37.8872 14.7586 38.6672 15.5252 38.6672 16.4673ZM3.07249 13.4483C2.11382 13.4483 1.33382 12.6817 1.33382 11.7396V4.01903C1.33382 3.0769 2.11382 2.31034 3.07249 2.31034H36.9278C37.8872 2.31034 38.6672 3.0769 38.6672 4.01903V11.7389C38.6672 12.6817 37.8872 13.4483 36.9285 13.4483H3.07249Z" fill="#222222"/>
<path d="M7.00049 23.2755C8.65449 23.2755 10.0005 21.9527 10.0005 20.3272C10.0005 18.7017 8.65449 17.3789 7.00049 17.3789C5.34649 17.3789 4.00049 18.7017 4.00049 20.3272C4.00049 21.9527 5.34649 23.2755 7.00049 23.2755ZM7.00049 18.6893C7.91916 18.6893 8.66716 19.4237 8.66716 20.3272C8.66716 21.2307 7.91916 21.9651 7.00049 21.9651C6.08182 21.9651 5.33382 21.2307 5.33382 20.3272C5.33382 19.4237 6.08182 18.6893 7.00049 18.6893Z" fill="#222222"/>
<path d="M33.3351 22.2801C33.7033 22.2801 34.0018 21.9867 34.0018 21.6249C34.0018 21.2631 33.7033 20.9697 33.3351 20.9697C32.9669 20.9697 32.6685 21.2631 32.6685 21.6249C32.6685 21.9867 32.9669 22.2801 33.3351 22.2801Z" fill="#222222"/>
<path d="M30.6672 22.2801C31.0353 22.2801 31.3338 21.9867 31.3338 21.6249C31.3338 21.2631 31.0353 20.9697 30.6672 20.9697C30.299 20.9697 30.0005 21.2631 30.0005 21.6249C30.0005 21.9867 30.299 22.2801 30.6672 22.2801Z" fill="#222222"/>
<path d="M34.6672 21.9666C35.0353 21.9666 35.3338 21.6733 35.3338 21.3114C35.3338 20.9496 35.0353 20.6562 34.6672 20.6562C34.299 20.6562 34.0005 20.9496 34.0005 21.3114C34.0005 21.6733 34.299 21.9666 34.6672 21.9666Z" fill="#222222"/>
<path d="M31.9992 21.9666C32.3674 21.9666 32.6658 21.6733 32.6658 21.3114C32.6658 20.9496 32.3674 20.6562 31.9992 20.6562C31.631 20.6562 31.3325 20.9496 31.3325 21.3114C31.3325 21.6733 31.631 21.9666 31.9992 21.9666Z" fill="#222222"/>
<path d="M27.9992 22.2801C28.3674 22.2801 28.6659 21.9867 28.6659 21.6249C28.6659 21.2631 28.3674 20.9697 27.9992 20.9697C27.631 20.9697 27.3325 21.2631 27.3325 21.6249C27.3325 21.9867 27.631 22.2801 27.9992 22.2801Z" fill="#222222"/>
<path d="M29.3351 21.9666C29.7033 21.9666 30.0018 21.6733 30.0018 21.3114C30.0018 20.9496 29.7033 20.6562 29.3351 20.6562C28.9669 20.6562 28.6685 20.9496 28.6685 21.3114C28.6685 21.6733 28.9669 21.9666 29.3351 21.9666Z" fill="#222222"/>
<path d="M25.3351 22.2801C25.7033 22.2801 26.0018 21.9867 26.0018 21.6249C26.0018 21.2631 25.7033 20.9697 25.3351 20.9697C24.9669 20.9697 24.6685 21.2631 24.6685 21.6249C24.6685 21.9867 24.9669 22.2801 25.3351 22.2801Z" fill="#222222"/>
<path d="M26.6672 21.9666C27.0353 21.9666 27.3338 21.6733 27.3338 21.3114C27.3338 20.9496 27.0353 20.6562 26.6672 20.6562C26.299 20.6562 26.0005 20.9496 26.0005 21.3114C26.0005 21.6733 26.299 21.9666 26.6672 21.9666Z" fill="#222222"/>
<path d="M22.6672 22.2801C23.0353 22.2801 23.3338 21.9867 23.3338 21.6249C23.3338 21.2631 23.0353 20.9697 22.6672 20.9697C22.299 20.9697 22.0005 21.2631 22.0005 21.6249C22.0005 21.9867 22.299 22.2801 22.6672 22.2801Z" fill="#222222"/>
<path d="M23.9992 21.9666C24.3674 21.9666 24.6659 21.6733 24.6659 21.3114C24.6659 20.9496 24.3674 20.6562 23.9992 20.6562C23.631 20.6562 23.3325 20.9496 23.3325 21.3114C23.3325 21.6733 23.631 21.9666 23.9992 21.9666Z" fill="#222222"/>
</svg>
