<svg width="40" height="40" viewBox="0 0 40 40" fill="none" xmlns="http://www.w3.org/2000/svg">
<g clip-path="url(#clip0_505_0)">
<path d="M38.3042 14.5095H30.0058L25.3508 3.85069C25.0918 3.25764 24.401 2.98662 23.8079 3.24577C23.2148 3.50475 22.9439 4.19561 23.203 4.78874L27.4483 14.5096H12.5508L16.7961 4.78874C17.0551 4.19561 16.7843 3.50483 16.1912 3.24577C15.5981 2.98662 14.9072 3.25748 14.6483 3.85069L9.9933 14.5095H1.69494C0.609395 14.5095 -0.19623 15.4923 0.0412703 16.5267L4.41119 35.5603C4.58471 36.3161 5.27174 36.8533 6.06486 36.8533H33.9342C34.7274 36.8533 35.4144 36.3161 35.5879 35.5603L39.9578 16.5267C40.1953 15.4923 39.3896 14.5095 38.3042 14.5095ZM10.2138 18.1036C10.0572 18.1036 9.89807 18.072 9.74533 18.0053C9.15221 17.7463 8.88135 17.0555 9.14041 16.4623L10.0207 14.4466H12.5782L11.2882 17.4003C11.096 17.8408 10.6655 18.1036 10.2138 18.1036ZM14.1402 30.6033C14.1402 31.2505 13.6155 31.7752 12.9683 31.7752C12.3211 31.7752 11.7964 31.2505 11.7964 30.6033V22.0095C11.7964 21.3623 12.3211 20.8376 12.9683 20.8376C13.6155 20.8376 14.1402 21.3623 14.1402 22.0095V30.6033ZM21.1714 30.6033C21.1714 31.2505 20.6467 31.7752 19.9996 31.7752C19.3524 31.7752 18.8277 31.2505 18.8277 30.6033V22.0095C18.8277 21.3623 19.3524 20.8376 19.9996 20.8376C20.6467 20.8376 21.1714 21.3623 21.1714 22.0095V30.6033ZM28.2027 30.6033C28.2027 31.2505 27.678 31.7752 27.0308 31.7752C26.3836 31.7752 25.8589 31.2505 25.8589 30.6033V22.0095C25.8589 21.3623 26.3836 20.8376 27.0308 20.8376C27.678 20.8376 28.2027 21.3623 28.2027 22.0095V30.6033ZM30.2537 18.0053C30.101 18.072 29.9419 18.1036 29.7853 18.1036C29.3336 18.1036 28.9031 17.8409 28.7108 17.4004L27.4208 14.4466H29.9783L30.8586 16.4624C31.1177 17.0555 30.8468 17.7463 30.2537 18.0053Z" fill="#222222"/>
</g>
<defs>
<clipPath id="clip0_505_0">
<rect width="40" height="40" fill="white"/>
</clipPath>
</defs>
</svg>
