<svg width="40" height="40" viewBox="0 0 40 40" fill="none" xmlns="http://www.w3.org/2000/svg">
<g clip-path="url(#clip0_507_1226)">
<path d="M39.1094 17.703C37.0234 17.1641 36.1327 14.0235 37.7032 12.4766C38.1016 12.1016 38.1953 11.5157 37.9141 11.0469L36.7422 9.03125C36.4844 8.5625 35.922 8.32805 35.4062 8.49211C33.2735 9.07805 30.8985 6.80469 31.5078 4.6718C31.6718 4.15625 31.4375 3.59375 30.9688 3.33594L28.9531 2.16406C28.4844 1.88266 27.8984 1.97648 27.5234 2.35148C25.8828 4.0625 22.8125 2.8593 22.2968 0.890625C22.1797 0.374922 21.7109 0 21.1719 0H18.8281C18.2891 0 17.8203 0.374922 17.7032 0.890625C17.1641 2.99992 14 3.92188 12.4766 2.35148C12.1016 1.97656 11.5157 1.88273 11.0469 2.16406L9.03125 3.33594C8.5625 3.59375 8.32812 4.15617 8.49227 4.67172C9.10148 6.80461 6.80469 9.10141 4.67195 8.49203C4.15625 8.32805 3.59375 8.5625 3.33594 9.03125L2.16406 11.0469C1.88281 11.5156 2 12.1251 2.39836 12.5C3.92188 14 3 17.1641 0.890547 17.703C0.374922 17.8203 0 18.289 0 18.8281V21.1719C0 21.7109 0.374922 22.1797 0.890625 22.2968C2.97656 22.8358 3.94539 25.9765 2.37492 27.5233C1.97656 27.8984 1.88289 28.4844 2.16406 28.9531L3.33594 30.9688C3.59375 31.4375 4.15617 31.6719 4.67188 31.5077C6.80461 30.9218 9.10148 33.1953 8.49219 35.328C8.32812 35.8438 8.56242 36.4062 9.03117 36.664L11.0468 37.8359C11.5155 38.0937 12.1015 38.0234 12.4765 37.6483C14 36.0545 17.164 36.9998 17.7031 39.1093C17.8203 39.6248 18.2891 39.9999 18.828 39.9999H21.1718C21.7108 39.9999 22.1796 39.6248 22.2967 39.1093C22.8359 36.9998 25.9999 36.0545 27.5234 37.6483C27.8983 38.0234 28.4842 38.117 28.953 37.8359L30.9687 36.664C31.4374 36.4062 31.6718 35.8438 31.5077 35.328C30.8984 33.1953 33.2734 30.8984 35.4061 31.5077C35.9218 31.6718 36.4843 31.4375 36.742 30.9688L37.9139 28.9531C38.1952 28.4844 38.078 27.8749 37.6796 27.5C36.1561 26 36.9998 22.8358 39.1093 22.2968C39.625 22.1796 39.9999 21.7109 39.9999 21.1719V18.8281C40 18.289 39.6251 17.8203 39.1094 17.703ZM20 32.8906C12.8984 32.8906 7.10938 27.1015 7.10938 20C7.10938 12.8984 12.8984 7.10938 20 7.10938C27.1016 7.10938 32.9688 12.8984 32.9688 20C32.9688 27.1015 27.1016 32.8906 20 32.8906Z" fill="#222222"/>
<path d="M27.0312 18.8281H25.7422C25.2734 16.5312 23.4687 14.7266 21.1719 14.2578V12.9688C21.1719 12.321 20.6477 11.7969 20 11.7969C19.3523 11.7969 18.8281 12.321 18.8281 12.9688V14.2578C16.5313 14.7266 14.7266 16.5312 14.2578 18.8281H12.9688C12.321 18.8281 11.7969 19.3523 11.7969 20C11.7969 20.6477 12.321 21.1719 12.9688 21.1719H14.2578C14.7266 23.4687 16.5313 25.2734 18.8281 25.7422V27.0312C18.8281 27.679 19.3523 28.2031 20 28.2031C20.6477 28.2031 21.1719 27.679 21.1719 27.0312V25.7422C23.4687 25.2734 25.2734 23.4687 25.7422 21.1719H27.0312C27.679 21.1719 28.2031 20.6477 28.2031 20C28.2031 19.3523 27.679 18.8281 27.0312 18.8281ZM20 21.1719C19.3437 21.1719 18.8281 20.6562 18.8281 20C18.8281 19.3437 19.3437 18.8281 20 18.8281C20.6563 18.8281 21.1719 19.3437 21.1719 20C21.1719 20.6562 20.6563 21.1719 20 21.1719Z" fill="#222222"/>
</g>
<defs>
<clipPath id="clip0_507_1226">
<rect width="40" height="40" fill="white"/>
</clipPath>
</defs>
</svg>
